<?xml version="1.0" encoding="iso-8859-1"?>
<!-- Generator: Adobe Illustrator 19.0.0, SVG Export Plug-In . SVG Version: 6.00 Build 0)  -->
<svg version="1.1" id="Layer_1" xmlns="http://www.w3.org/2000/svg" xmlns:xlink="http://www.w3.org/1999/xlink" x="0px" y="0px"
	 viewBox="0 0 486.402 486.402" style="enable-background:new 0 0 486.402 486.402;" xml:space="preserve">
<g transform="translate(0 -952.36)">
	<path style="fill:red;" d="M51.902,1415.714l0.331-13.546l4.408,8.081C55.088,1411.808,52.641,1414.561,51.902,1415.714
		L51.902,1415.714z"/>
	<g>
		<path style="fill:blue;" d="M357.181,964.621c-20.861-0.118-40.989,8.603-54.21,25.6c-23.504,30.217-16.266,75.17,16.17,100.4
			c13.273,10.325,28.719,15.686,43.94,16.42l0.1,0.11c2.986,3.495,8.837,5.336,13.47,4.41c3.011-0.602,6.932-4.701,6.98-6.01
			l0.41-11.09l-0.44-2.2l-5.17,6.1l-50.03-58.57l19.06-27.58c5.859-8.483,17.835-10.204,26.89-3.85l59.29,41.58
			c3.299-24.776-7.097-51.417-29.38-68.75C390.07,970.153,373.406,964.713,357.181,964.621z M322.851,1059.941l12.09,14.15
			l-4.02-2.82C326.797,1068.377,324.099,1064.301,322.851,1059.941z"/>
		<path style="fill:blue;" d="M330.538,992.038c-9.995-7.775-25.629-4.281-35.053,7.834l-120.353,154.725
			c-9.424,12.115-8.964,28.128,1.031,35.902s25.629,4.281,35.053-7.834l120.353-154.725
			C340.993,1015.825,340.533,999.812,330.538,992.038L330.538,992.038z"/>
	</g>
	<path style="fill:red;" d="M323.527,1048.465l-3.493,7.822l39.745,45.371l-252.492,307.722l0.045,0.118l-20.099,24.999
		c-3.73,4.796-10.896,5.691-15.692,1.961l-15.356-11.945c-4.796-3.731-5.691-10.896-1.961-15.692l20.373-26.192l-0.323-0.251
		l159.637-213.52l2.775-9.417l0.161-40.186l0.917-4.585l21.24,16.522c2.664,2.072,6.475,1.596,8.547-1.068l13.564-17.437
		c2.072-2.664,1.596-6.475-1.068-8.547l-34.264-26.653c-0.014-0.01-0.023-0.021-0.036-0.026l38.769-44.881l39.009,15.889
		L323.527,1048.465z M87.191,1392.941l-1.363-1.061l-18.029,23.177l10.046,7.814l17.862-22.962L87.191,1392.941z"/>
	<path style="fill:#2C3E50;" d="M271.275,1099.946l-30.744-23.914c-4.841-3.766-11.77-2.9-15.536,1.941l-5.542,7.125
		c-3.766,4.841-2.9,11.771,1.941,15.536l30.744,23.914c4.841,3.766,11.77,2.9,15.536-1.941l5.542-7.125
		C276.982,1110.641,276.116,1103.711,271.275,1099.946z"/>
	<path style="fill:blue;" d="M357.451,952.361c-20.861-0.118-41.199,8.442-54.21,25.6c-2.607,3.438-7.49,9.65-7.49,9.65
		l-120.35,154.72c-9.424,12.115-8.965,28.135,1.03,35.91s25.626,4.275,35.05-7.84l88.58-113.86
		c4.856,8.131,11.328,15.58,19.35,21.82c13.273,10.325,28.718,15.678,43.94,16.41l0.1,0.11c2.986,3.495,8.985,5.462,13.46,4.41
		l2.8-0.65c4.475-1.052,5.676-4.715,2.69-8.21l-53.73-62.9l19.05-27.58c5.859-8.483,17.845-10.204,26.9-3.85l59.28,41.58
		c3.299-24.776-7.087-51.417-29.37-68.75C390.34,957.893,373.676,952.453,357.451,952.361z M323.121,1047.671l12.09,14.15
		l-4.02-2.82C327.066,1056.107,324.369,1052.032,323.121,1047.671z"/>
	<path style="fill:red;" d="M278.271,1017.741c-8.03-0.322-18.042,5.629-25.42,15.11c-10.141,13.036-12.12,28.46-4.42,34.45
		c10.641,8.009,21.289,16.374,31.88,24.57c2.669,2.065,3.142,5.886,1.07,8.55l-13.56,17.44c-2.072,2.664-5.886,3.142-8.55,1.07
		l-21.24-16.53l-0.92,4.59l-0.16,40.18l-2.77,9.42l-159.64,213.52l-0.04,0.072l-20.01,26.37c-3.73,4.796-2.836,11.97,1.96,15.7
		l15.36,11.941c4.796,3.73,11.96,2.836,15.69-1.96l19.73-25.37l0.32,0.251l252.5-307.72l-39.75-45.37l3.49-7.82
		c0,0-27.149-11.274-37.961-16.157c-2.154-0.972-4.884-2.197-7.559-2.303V1017.741z M86.091,1379.621l1.37,1.06l8.51,6.971
		l-17.86,22.959l-10.04-7.82L86.091,1379.621z"/>
	<path style="fill:#34495E;" d="M271.542,1087.682l-30.744-23.914c-4.841-3.766-11.77-2.9-15.536,1.941l-5.542,7.125
		c-3.766,4.841-2.9,11.771,1.941,15.536l30.744,23.914c4.841,3.766,11.77,2.9,15.536-1.941l5.542-7.125
		C277.249,1098.377,276.383,1091.448,271.542,1087.682L271.542,1087.682z"/>
	<path style="fill:#F29F4A;" d="M266.05,1041.579c-5.73,7.366-4.403,17.983,2.963,23.712c0,0,0,0,0,0
		c7.366,5.73,17.982,4.403,23.712-2.963c5.73-7.366,4.403-17.983-2.963-23.712c0,0,0,0,0,0
		C282.396,1032.886,271.78,1034.213,266.05,1041.579z"/>
	<path style="fill:red;" d="M354.588,1095.928l5.298,5.977v-12.673L354.588,1095.928z"/>
</g>
<g>
</g>
<g>
</g>
<g>
</g>
<g>
</g>
<g>
</g>
<g>
</g>
<g>
</g>
<g>
</g>
<g>
</g>
<g>
</g>
<g>
</g>
<g>
</g>
<g>
</g>
<g>
</g>
<g>
</g>
</svg>
